<?xml version="1.0" standalone="no"?>
<!DOCTYPE svg PUBLIC "-//W3C//DTD SVG 20010904//EN"
 "http://www.w3.org/TR/2001/REC-SVG-20010904/DTD/svg10.dtd">
<svg version="1.0" xmlns="http://www.w3.org/2000/svg"
 width="254.000000pt" height="180.000000pt" viewBox="0 0 254.000000 180.000000"
 preserveAspectRatio="xMidYMid meet">
<metadata>
Created by potrace 1.15, written by Peter Selinger 2001-2017
</metadata>
<g transform="translate(0.000000,180.000000) scale(0.100000,-0.100000)"
fill="#000000" stroke="none">
<path d="M0 1615 l0 -185 208 0 207 0 85 -85 85 -85 -293 0 -292 0 0 -360 0
-360 293 0 292 -1 -85 -79 -84 -80 -208 0 -208 0 0 -190 0 -190 1270 0 1270 0
0 190 0 190 -208 0 -207 0 -80 80 -80 80 288 0 287 0 0 360 0 360 -285 0
c-157 0 -285 3 -285 8 0 4 35 42 78 85 l77 77 208 0 207 0 0 185 0 185 -1270
0 -1270 0 0 -185z m1432 -387 c14 -2 30 -6 34 -10 4 -5 44 -8 88 -9 45 -1 106
-4 136 -9 30 -4 -159 -7 -420 -7 -365 0 -448 2 -360 9 63 5 124 14 135 19 30
13 284 18 387 7z m-894 -205 c-7 -9 -62 -53 -123 -99 -140 -105 -221 -184
-189 -184 3 0 38 16 77 36 85 43 210 122 328 210 48 35 89 64 93 64 20 0 -6
-26 -99 -99 -141 -110 -227 -191 -221 -208 3 -7 -1 -13 -9 -13 -27 0 -16 27
33 79 26 28 46 51 44 51 -1 0 -33 -20 -70 -44 -126 -82 -202 -109 -202 -71 0
34 141 160 278 248 62 40 45 44 -28 7 -34 -17 -64 -29 -67 -26 -6 5 90 56 127
66 33 9 44 2 28 -17z m792 18 c0 -16 -51 -71 -112 -122 -33 -27 -53 -49 -46
-50 7 0 0 -5 -17 -11 -16 -6 -46 -22 -65 -37 -118 -90 -217 -136 -155 -71 16
17 33 30 39 30 5 0 1 -7 -10 -16 -16 -13 -14 -13 11 1 17 9 46 29 65 45 l35
29 -42 1 c-32 0 -45 5 -53 20 -21 40 85 121 223 171 55 19 127 25 127 10z
m250 -14 c0 -37 -51 -108 -123 -171 -36 -32 -65 -63 -64 -69 1 -5 -11 -13 -28
-17 -16 -4 -43 -14 -60 -22 -71 -36 -115 -30 -115 16 0 51 109 176 216 248 43
29 60 35 112 36 58 2 62 0 62 -21z m410 14 c0 -5 -39 -40 -87 -78 -146 -113
-245 -204 -239 -219 3 -8 -1 -14 -9 -14 -8 0 -15 2 -15 5 0 11 24 55 30 55 3
0 17 15 30 33 l24 32 -29 -20 c-138 -91 -235 -128 -235 -88 0 26 123 140 228
212 51 34 91 65 89 68 -3 2 -33 -10 -67 -27 -34 -17 -64 -29 -67 -27 -9 10
125 69 148 65 l24 -3 -21 -20 c-11 -11 -58 -47 -104 -80 -100 -72 -218 -180
-208 -190 17 -18 307 156 443 264 51 41 65 48 65 32z m285 -10 c0 -21 -46 -51
-90 -58 -37 -6 -39 -5 -26 11 8 9 21 14 31 11 20 -6 70 13 70 28 0 14 -115 2
-175 -18 -100 -34 -97 -66 5 -73 33 -2 60 -8 60 -13 0 -5 -10 -9 -22 -9 -89
-1 -264 -64 -299 -108 -45 -58 57 -73 150 -22 54 30 84 32 46 3 -88 -68 -225
-74 -225 -11 0 53 64 100 173 127 64 17 68 20 49 30 -50 27 -17 72 75 102 69
22 178 22 178 0z m-1395 -1 c0 -6 -23 -34 -51 -62 -51 -51 -51 -51 -13 -28 95
58 181 99 207 100 60 0 24 -40 -160 -177 -113 -84 -151 -118 -142 -124 10 -6
8 -9 -8 -9 -48 0 -18 33 130 144 84 63 161 124 171 135 73 80 -212 -79 -412
-230 -60 -45 -84 -56 -68 -30 4 5 55 47 114 92 193 148 236 189 199 189 -15 0
-146 -80 -200 -123 -21 -16 -40 -27 -43 -24 -8 8 96 84 168 123 63 33 108 43
108 24z m840 -396 c-14 -2 -64 -6 -113 -9 -48 -4 -85 -10 -82 -15 10 -16 -134
-35 -270 -35 -138 1 -251 17 -239 36 3 5 -21 9 -53 10 -32 1 -83 4 -113 9 -30
4 159 7 420 7 261 0 464 -1 450 -3z"/>
<path d="M1260 1033 c-120 -44 -270 -131 -270 -158 0 -12 14 -15 59 -15 56 0
62 3 132 56 86 65 129 104 129 116 0 9 -27 9 -50 1z"/>
<path d="M1410 992 c-72 -54 -185 -172 -193 -202 -6 -24 -8 -24 36 -5 20 8 52
15 71 15 38 0 64 18 159 109 83 79 108 131 65 131 -27 0 -75 -28 -135 -77 -24
-19 -43 -30 -43 -25 0 11 35 42 85 76 22 14 35 26 30 26 -6 0 -39 -22 -75 -48z"/>
</g>
</svg>
